<svg xmlns="http://www.w3.org/2000/svg" xmlns:xlink="http://www.w3.org/1999/xlink" version="1.1" id="Layer_1" x="0px" y="0px" width="100%" viewBox="0 0 512 512" enable-background="new 0 0 512 512" xml:space="preserve">
<path fill="#a855f7" opacity="1.000000" stroke="none" d=" M164.376175,120.324554   C181.785782,106.769775 201.327408,100.150833 222.862503,101.890984   C253.253235,104.346703 276.020599,119.564674 291.071228,146.154602   C292.135620,148.035080 293.112701,149.978134 293.960510,151.964569   C294.910828,154.191238 296.493500,154.725998 298.769287,154.475311   C319.107605,152.234985 335.563629,159.875824 348.832031,174.817032   C355.110992,181.887573 358.995575,190.373932 361.011322,199.676239   C361.702393,202.865372 360.814178,204.494202 357.345978,204.307083   C355.684906,204.217484 354.014282,204.311539 352.347961,204.311676   C290.526337,204.316635 228.704681,204.322037 166.883041,204.323074   C150.383087,204.323349 140.447723,214.175812 140.381439,230.713943   C140.325333,244.711075 140.346603,258.708557 140.347672,272.705872   C140.347855,275.168121 140.282440,277.098511 136.845581,277.456879   C112.591286,279.985809 89.317093,268.303864 77.709984,247.097672   C59.473495,213.779587 76.673477,168.435623 118.439804,160.981445   C122.968262,160.173248 127.780884,160.361099 132.392044,160.807068   C135.884781,161.144867 137.402985,160.111420 138.554749,156.898453   C143.727173,142.469543 152.301956,130.360504 164.376175,120.324554  z"/>
<path fill="#a855f7" opacity="1.000000" stroke="none" d=" M314.000000,219.882507   C334.997498,219.885605 355.494995,219.882217 375.992493,219.893478   C387.946625,219.900040 392.041504,223.722763 392.060150,235.680099   C392.142487,288.506805 392.130859,341.333740 392.065277,394.160522   C392.052582,404.369751 387.871185,408.377197 377.742767,408.386841   C339.580841,408.423187 301.418945,408.432861 263.257019,408.437866   C261.954559,408.438019 260.652100,408.282135 258.468567,408.142761   C261.428741,402.991638 263.946747,398.234039 266.854584,393.727966   C268.082886,391.824554 270.567261,392.696136 272.489258,392.693542   C303.485443,392.651520 334.481720,392.664551 365.477966,392.665161   C375.964630,392.665344 375.965179,392.665344 375.966980,382.421570   C375.972839,348.925720 375.979858,315.429840 375.982513,281.933990   C375.983032,275.337067 375.975098,275.315826 369.301819,275.315216   C305.809509,275.309418 242.317108,275.359650 178.825119,275.215729   C173.967316,275.204742 171.565216,276.244385 172.296875,281.535797   C173.604599,290.993195 172.409775,299.309113 161.901123,303.209229   C160.271057,303.814240 159.437378,305.906769 157.486740,306.239838   C156.088181,305.446655 156.662659,304.150330 156.661911,303.076080   C156.645355,279.079041 156.655441,255.081985 156.666916,231.084930   C156.671066,222.410217 159.217331,219.883392 168.018906,219.882263   C216.512604,219.876068 265.006317,219.881042 314.000000,219.882507  M358.543549,238.273468   C354.823456,238.351974 352.071930,240.110291 350.839661,243.548798   C349.745026,246.603210 349.741608,249.796661 352.152679,252.448761   C354.874023,255.442123 358.215637,256.660767 362.027649,254.997299   C366.089813,253.224640 368.272003,249.954254 367.591156,245.440796   C366.901764,240.870941 363.816803,238.664917 358.543549,238.273468  M318.361877,246.620163   C319.400940,253.859741 325.212036,257.694824 330.856812,254.795502   C334.912231,252.712540 336.461975,249.244415 335.651215,244.847748   C334.880493,240.667892 331.912628,238.733459 327.931183,238.336426   C323.216339,237.866241 320.296265,240.261124 318.361877,246.620163  M287.404266,243.889130   C285.350677,248.170197 287.374207,251.265717 290.525909,253.825867   C293.376923,256.141785 296.609009,256.424988 299.758453,254.384125   C302.867249,252.369583 304.977966,249.507782 304.291748,245.682922   C303.640900,242.055161 301.442810,239.226044 297.593964,238.480865   C293.247498,237.639343 289.736237,239.019928 287.404266,243.889130  z"/>
<path fill="#a855f7" opacity="1.000000" stroke="none" d=" M166.598541,341.828033   C166.201202,338.780182 163.862198,337.755859 162.241455,336.152313   C158.028748,331.984253 157.448303,327.742889 160.557816,322.660858   C162.903244,318.827606 165.323212,315.038361 167.781876,311.276489   C171.117630,306.172546 174.946228,304.874054 180.597626,306.821503   C187.262985,309.118378 196.838303,304.256592 198.372803,297.421997   C199.480042,292.490479 202.125153,290.037964 207.103180,289.358185   C213.290497,288.513275 219.396805,288.819611 225.507812,289.721924   C230.480911,290.456207 232.109055,294.222046 233.152740,298.468933   C234.385834,303.486511 243.964325,308.571136 248.899719,306.854950   C257.608124,303.826843 259.730865,304.560150 264.580383,312.233154   C266.536713,315.328491 268.564148,318.379547 270.482208,321.498169   C274.377258,327.831207 273.690002,331.989929 268.037537,336.774536   C262.649536,341.335297 262.677429,351.642426 268.089935,356.127197   C274.072723,361.084320 274.682312,365.065796 270.456970,371.730103   C268.138733,375.386536 265.868347,379.076050 263.450836,382.666138   C259.475006,388.570312 256.393494,389.510895 249.931885,386.995819   C243.945770,384.665802 234.649887,389.596649 233.070526,395.939636   C231.595047,401.865509 228.608139,404.271606 222.430847,404.356567   C217.766205,404.420746 213.098709,404.437012 208.434769,404.351013   C202.523651,404.242004 200.109924,402.273041 198.529053,396.512878   C196.593658,389.460907 186.423279,383.899719 179.703842,386.364807   C175.044876,388.074036 171.436707,386.494446 168.761688,382.850616   C165.614166,378.563110 162.720871,374.066071 160.016159,369.483521   C157.787720,365.707947 157.424271,360.955322 161.033600,358.528717   C167.428482,354.229401 166.816833,348.349884 166.598541,341.828033  M233.735031,362.203033   C238.586777,355.791870 240.720718,348.829834 238.592270,340.769836   C235.526505,329.160461 224.474365,321.786774 211.994827,323.246307   C200.754013,324.560974 191.426376,335.110687 191.361923,346.582520   C191.309921,355.834442 197.553177,365.041809 206.431870,368.807129   C215.732224,372.751312 225.432449,370.555969 233.735031,362.203033  z"/>
<path fill="#a855f7" opacity="1.000000" stroke="none" d=" M312.809998,351.211914   C310.985077,350.340820 309.604767,349.439026 307.833008,349.379730   C301.051331,349.152802 294.777771,343.560242 293.776672,336.908722   C293.494751,335.035492 293.684296,333.180115 295.034851,331.739868   C299.531219,326.944916 299.028870,321.834503 295.787079,316.780548   C293.451355,313.139130 293.997009,309.902435 296.198303,306.576569   C298.634766,302.895447 301.267181,298.653717 306.274139,299.870575   C311.599640,301.164825 314.668396,298.445862 317.374451,295.171997   C321.635376,290.016968 327.053131,289.142181 333.103638,289.704620   C336.123749,289.985321 338.881073,291.241638 339.613831,294.303802   C341.076538,300.416687 345.857849,302.785767 350.893921,304.426819   C356.218994,306.161957 358.376099,309.514709 358.331543,314.779480   C358.303345,318.110260 358.338043,321.443024 358.228638,324.771118   C358.149231,327.187927 358.506592,329.293182 360.335907,331.151581   C363.250031,334.112061 362.882538,337.612335 360.885223,340.796234   C358.505127,344.590363 357.055267,349.867584 351.027039,349.309967   C344.566559,348.712372 340.393677,351.537262 337.631073,357.153870   C334.961548,362.581116 329.825806,361.163635 325.298676,361.367401   C321.689758,361.529785 319.001282,360.026794 318.090485,356.518555   C317.359344,353.702423 315.452393,352.448334 312.809998,351.211914  M334.280243,333.988586   C335.245361,333.079498 336.393585,332.299744 337.143158,331.238403   C340.023346,327.160187 340.278870,322.851288 337.311401,318.770782   C334.629089,315.082520 331.086395,312.727783 326.202026,313.926208   C319.427399,315.588379 315.576569,322.217407 317.690308,328.426544   C319.927277,334.997711 326.417999,337.435455 334.280243,333.988586  z"/>
</svg>