<?xml version="1.0" encoding="utf-8"?>
<svg xmlns="http://www.w3.org/2000/svg" viewBox="0 0 500 500" xmlns:bx="https://boxy-svg.com" width="500px" height="500px"><defs><bx:export><bx:file format="svg"/></bx:export></defs><g id="Layer_1" transform="matrix(1.073747, 0, 0, 1.059, -66.51371, -8.836458)" style=""><path fill="#a855f7" opacity="1.000000" stroke="none" d="M 217.1 104.997 C 234.51 91.442 254.051 84.823 275.586 86.564 C 305.977 89.019 328.744 104.237 343.795 130.827 C 344.859 132.708 345.836 134.651 346.684 136.637 C 347.635 138.864 349.217 139.399 351.493 139.148 C 371.831 136.908 388.287 144.548 401.556 159.49 C 407.835 166.56 411.719 175.047 413.735 184.349 C 414.426 187.538 413.538 189.167 410.07 188.98 C 408.409 188.89 406.738 188.984 405.072 188.984 C 343.25 188.989 281.428 188.995 219.607 188.996 C 203.107 188.996 193.172 198.848 193.105 215.387 C 193.049 229.384 193.07 243.381 193.071 257.378 C 193.072 259.841 193.006 261.771 189.569 262.129 C 165.315 264.658 142.041 252.976 130.434 231.77 C 112.197 198.452 129.397 153.108 171.164 145.654 C 175.692 144.846 180.505 145.034 185.116 145.48 C 188.609 145.817 190.127 144.784 191.279 141.571 C 196.451 127.142 205.026 115.033 217.1 104.997 Z" style="stroke-width: 1;"/><path fill="#a855f7" opacity="1.000000" stroke="none" d="M 366.724 204.555 C 387.721 204.558 408.219 204.555 428.716 204.566 C 440.67 204.573 444.765 208.395 444.784 220.353 C 444.866 273.179 444.855 326.006 444.789 378.833 C 444.776 389.042 440.595 393.05 430.467 393.059 C 392.305 393.096 354.143 393.105 315.981 393.11 C 314.678 393.111 313.376 392.955 311.192 392.815 C 314.153 387.664 316.671 382.907 319.578 378.401 C 320.807 376.497 323.291 377.369 325.213 377.366 C 356.209 377.324 387.205 377.337 418.202 377.338 C 428.688 377.338 428.689 377.338 428.691 367.094 C 428.697 333.598 428.704 300.102 428.706 266.607 C 428.707 260.01 428.699 259.988 422.026 259.988 C 358.533 259.982 295.041 260.032 231.549 259.888 C 226.691 259.877 224.289 260.917 225.021 266.208 C 226.328 275.666 225.134 283.982 214.625 287.882 C 212.995 288.487 212.161 290.579 210.211 290.912 C 208.812 290.119 209.386 288.823 209.386 287.749 C 209.369 263.752 209.379 239.755 209.391 215.758 C 209.395 207.083 211.941 204.556 220.743 204.555 C 269.236 204.549 317.73 204.554 366.724 204.555 M 411.267 222.946 C 407.547 223.025 404.796 224.783 403.563 228.221 C 402.469 231.276 402.465 234.469 404.876 237.121 C 407.598 240.115 410.939 241.333 414.751 239.67 C 418.814 237.897 420.996 234.627 420.315 230.113 C 419.626 225.544 416.541 223.338 411.267 222.946 M 371.086 231.293 C 372.125 238.532 377.936 242.367 383.581 239.468 C 387.636 237.385 389.186 233.917 388.375 229.52 C 387.604 225.34 384.636 223.406 380.655 223.009 C 375.94 222.539 373.02 224.934 371.086 231.293 M 340.128 228.562 C 338.074 232.843 340.098 235.938 343.25 238.498 C 346.101 240.814 349.333 241.098 352.482 239.057 C 355.591 237.042 357.702 234.18 357.016 230.356 C 356.365 226.728 354.167 223.899 350.318 223.153 C 345.971 222.312 342.46 223.693 340.128 228.562 Z" style="stroke-width: 1;"/><path fill="#a855f7" opacity="1.000000" stroke="none" d="M 219.322 326.501 C 218.925 323.453 216.586 322.428 214.965 320.825 C 210.753 316.657 210.172 312.415 213.282 307.333 C 215.627 303.5 218.047 299.711 220.506 295.949 C 223.841 290.845 227.67 289.547 233.321 291.494 C 239.987 293.791 249.562 288.929 251.097 282.095 C 252.204 277.163 254.849 274.711 259.827 274.031 C 266.014 273.186 272.121 273.492 278.232 274.395 C 283.205 275.129 284.833 278.895 285.877 283.142 C 287.11 288.159 296.688 293.244 301.623 291.528 C 310.332 288.499 312.455 289.233 317.304 296.906 C 319.26 300.001 321.288 303.052 323.206 306.171 C 327.101 312.504 326.414 316.663 320.761 321.447 C 315.373 326.008 315.401 336.315 320.814 340.8 C 326.797 345.757 327.406 349.738 323.181 356.403 C 320.863 360.059 318.592 363.749 316.175 367.339 C 312.199 373.243 309.117 374.184 302.656 371.668 C 296.67 369.338 287.374 374.269 285.794 380.612 C 284.319 386.538 281.332 388.944 275.155 389.029 C 270.49 389.093 265.822 389.11 261.159 389.024 C 255.247 388.915 252.834 386.946 251.253 381.185 C 249.317 374.134 239.147 368.572 232.428 371.037 C 227.769 372.747 224.16 371.167 221.485 367.523 C 218.338 363.236 215.445 358.739 212.74 354.156 C 210.511 350.381 210.148 345.628 213.757 343.201 C 220.152 338.902 219.541 333.022 219.322 326.501 M 286.459 346.876 C 291.311 340.464 293.444 333.502 291.316 325.442 C 288.25 313.833 277.198 306.459 264.719 307.919 C 253.478 309.234 244.15 319.783 244.086 331.255 C 244.034 340.507 250.277 349.714 259.156 353.48 C 268.456 357.424 278.156 355.229 286.459 346.876 Z" style="stroke-width: 1;"/><path fill="#a855f7" opacity="1.000000" stroke="none" d="M 365.534 335.885 C 363.709 335.013 362.329 334.112 360.557 334.052 C 353.775 333.825 347.502 328.233 346.5 321.581 C 346.219 319.708 346.408 317.853 347.759 316.412 C 352.255 311.618 351.753 306.507 348.511 301.453 C 346.175 297.812 346.721 294.575 348.922 291.249 C 351.359 287.568 353.991 283.326 358.998 284.543 C 364.323 285.837 367.392 283.118 370.098 279.845 C 374.359 274.69 379.777 273.815 385.827 274.377 C 388.848 274.658 391.605 275.914 392.338 278.976 C 393.8 285.089 398.582 287.458 403.618 289.099 C 408.943 290.835 411.1 294.187 411.055 299.452 C 411.027 302.783 411.062 306.116 410.952 309.444 C 410.873 311.861 411.23 313.966 413.06 315.824 C 415.974 318.785 415.606 322.285 413.609 325.469 C 411.229 329.263 409.779 334.54 403.751 333.983 C 397.29 333.385 393.117 336.21 390.355 341.826 C 387.685 347.254 382.55 345.836 378.022 346.04 C 374.414 346.202 371.725 344.699 370.814 341.191 C 370.083 338.375 368.176 337.121 365.534 335.885 M 387.004 318.661 C 387.969 317.752 389.117 316.972 389.867 315.911 C 392.747 311.833 393.003 307.524 390.035 303.443 C 387.353 299.755 383.81 297.4 378.926 298.599 C 372.151 300.261 368.3 306.89 370.414 313.099 C 372.651 319.67 379.142 322.108 387.004 318.661 Z" style="stroke-width: 1;"/></g></svg>