<svg version="1.1" id="Layer_1" xmlns="http://www.w3.org/2000/svg" xmlns:xlink="http://www.w3.org/1999/xlink" x="0px" y="0px"
	 width="100%" viewBox="0 0 512 512" enable-background="new 0 0 512 512" xml:space="preserve">
<path fill="#000000" opacity="1.000000" stroke="none" 
	d="
M327.000000,111.958817 
	C349.162781,111.964165 370.825775,111.920097 392.488098,112.021950 
	C396.126984,112.039055 399.856293,112.289246 403.383514,113.115768 
	C416.228333,116.125633 423.982880,125.954041 424.016327,140.167618 
	C424.156311,199.656448 424.091614,259.145905 424.002869,318.634979 
	C423.990082,327.196350 422.000122,335.174194 415.040955,341.071564 
	C410.311951,345.079010 405.025146,347.437897 398.672607,347.424286 
	C369.511353,347.361786 340.349854,347.391052 311.188477,347.424744 
	C308.888184,347.427399 306.528320,347.039551 303.619934,348.236115 
	C305.627563,357.702209 308.087646,367.090485 312.644562,375.761627 
	C314.176514,378.676636 317.323151,379.881378 320.739075,379.896088 
	C325.237457,379.915405 329.747345,379.794006 334.231232,380.072449 
	C341.968109,380.552887 345.472504,384.149200 345.469604,391.187317 
	C345.466949,397.642731 341.682373,401.361572 334.343414,402.024170 
	C332.688873,402.173553 331.013611,402.115295 329.347870,402.115570 
	C290.521545,402.122131 251.695236,402.136780 212.868973,402.097290 
	C210.219238,402.094604 207.537643,401.866394 204.927002,401.416901 
	C199.093582,400.412598 195.680496,396.361023 195.698349,390.780060 
	C195.717880,384.675781 198.924103,380.902283 205.397919,380.257843 
	C210.186264,379.781219 215.047928,379.943512 219.875519,379.984985 
	C225.036591,380.029266 228.459671,377.599518 230.214706,372.894562 
	C232.713547,366.195557 234.880463,359.389801 236.866455,352.509888 
	C238.115494,348.182861 236.789612,347.332977 232.751755,347.348145 
	C203.924026,347.456299 175.082947,346.888275 146.272583,347.602753 
	C130.432800,347.995544 116.811203,338.466644 116.891678,318.178650 
	C117.072784,272.520935 116.942734,226.862015 116.940361,181.203568 
	C116.939682,168.039276 116.930260,154.874954 116.946785,141.710678 
	C116.970955,122.456955 127.231071,112.031845 146.533890,112.008377 
	C206.522522,111.935463 266.511292,111.967247 327.000000,111.958817 
M249.500122,137.387619 
	C216.008102,137.389130 182.516083,137.385559 149.024063,137.396454 
	C142.400497,137.398605 142.399002,137.424225 142.399109,144.079132 
	C142.399933,196.067062 142.401672,248.054977 142.402328,300.042908 
	C142.402405,306.626648 142.400284,306.643921 149.045532,306.644226 
	C230.026779,306.647949 311.008026,306.647522 391.989258,306.643463 
	C398.620728,306.643127 398.644775,306.627045 398.645630,299.980743 
	C398.652222,247.992783 398.651306,196.004822 398.645477,144.016861 
	C398.644714,137.405487 398.625366,137.391251 391.967377,137.390656 
	C344.811615,137.386414 297.655884,137.388489 249.500122,137.387619 
z"/>
<path fill="#000000" opacity="1.000000" stroke="none" 
	d="
M270.112915,252.969452 
	C268.381775,257.164337 266.791779,261.003937 265.199036,264.842407 
	C262.710327,270.840118 258.685516,273.073334 253.614075,271.272949 
	C248.940216,269.613708 247.382553,265.197174 249.707047,259.156128 
	C258.777466,235.583374 267.945984,212.048370 277.080139,188.500153 
	C278.101562,185.866852 279.023621,183.187576 280.188660,180.618958 
	C282.600006,175.302673 287.345337,173.279831 292.480591,175.232529 
	C297.102264,176.989914 299.384766,181.914139 297.287231,187.182388 
	C291.447998,201.848389 285.314453,216.397339 279.278259,230.984711 
	C276.291229,238.203247 273.262604,245.404556 270.112915,252.969452 
z"/>
<path fill="#000000" opacity="1.000000" stroke="none" 
	d="
M231.897949,248.303040 
	C232.921753,253.010757 232.734848,257.051392 228.123840,259.353668 
	C223.517136,261.653839 219.872253,259.872894 216.494202,256.547272 
	C207.482391,247.675247 198.368988,238.906464 189.316864,230.075241 
	C184.096573,224.982330 183.974792,220.513092 189.007141,215.492615 
	C198.312241,206.209473 207.690445,196.999649 217.004044,187.724960 
	C219.337204,185.401566 221.948547,183.612701 225.340622,184.002365 
	C228.889984,184.410110 231.533020,186.356247 232.812073,189.813217 
	C234.043488,193.141449 233.170959,196.006714 230.704803,198.463364 
	C224.102737,205.039993 217.489258,211.605286 210.916367,218.210968 
	C209.647873,219.485794 208.066589,220.538803 207.334869,222.810074 
	C214.785583,231.682022 224.283630,238.855743 231.897949,248.303040 
z"/>
<path fill="#000000" opacity="1.000000" stroke="none" 
	d="
M349.091797,232.065643 
	C340.331726,240.764771 331.881195,249.267105 323.309814,257.645752 
	C319.503448,261.366486 314.234222,261.407776 310.767090,258.045532 
	C307.170776,254.557999 307.296448,249.802063 311.116669,245.643936 
	C311.904144,244.786774 312.756226,243.988846 313.579773,243.164902 
	C319.346222,237.395645 325.123444,231.637039 330.870117,225.848129 
	C331.897064,224.813644 333.304718,224.026505 333.557220,221.571518 
	C329.064209,217.154099 324.213043,212.407822 319.389465,207.633698 
	C316.315155,204.590851 313.072784,201.683716 310.285339,198.394119 
	C307.156860,194.702103 307.458191,190.151321 310.527252,187.102463 
	C313.635376,184.014832 319.047150,183.464310 322.333862,186.602249 
	C332.805115,196.599564 343.207733,206.682327 353.277344,217.080292 
	C357.482025,221.422119 356.076996,225.493530 349.091797,232.065643 
z"/>
</svg>