<?xml version="1.0" encoding="utf-8"?>
<svg xmlns="http://www.w3.org/2000/svg" viewBox="0 0 500 500" xmlns:bx="https://boxy-svg.com" width="500px" height="500px"><defs><bx:export><bx:file format="svg"/></bx:export></defs><g id="Layer_1" transform="matrix(1.121325, 0, 0, 1.14791, -131.326126, -265.443695)" style=""><path fill="#a855f7" opacity="1.000000" stroke="none" d="M 398.845 305.597 C 421.007 305.602 442.67 305.558 464.333 305.66 C 467.972 305.677 471.701 305.927 475.228 306.754 C 488.073 309.763 495.828 319.592 495.861 333.805 C 496.001 393.294 495.936 452.784 495.848 512.273 C 495.835 520.834 493.845 528.812 486.886 534.709 C 482.157 538.717 476.87 541.076 470.517 541.062 C 441.356 541 412.195 541.029 383.033 541.063 C 380.733 541.065 378.373 540.677 375.465 541.874 C 377.472 551.34 379.932 560.728 384.489 569.399 C 386.021 572.314 389.168 573.519 392.584 573.534 C 397.082 573.553 401.592 573.432 406.076 573.71 C 413.813 574.191 417.317 577.787 417.314 584.825 C 417.312 591.281 413.527 594.999 406.188 595.662 C 404.534 595.811 402.858 595.753 401.193 595.753 C 362.366 595.76 323.54 595.775 284.714 595.735 C 282.064 595.732 279.382 595.504 276.772 595.055 C 270.938 594.05 267.525 589.999 267.543 584.418 C 267.563 578.314 270.769 574.54 277.243 573.896 C 282.031 573.419 286.893 573.581 291.72 573.623 C 296.881 573.667 300.304 571.237 302.059 566.532 C 304.558 559.833 306.725 553.028 308.711 546.148 C 309.96 541.821 308.634 540.971 304.596 540.986 C 275.769 541.094 246.928 540.526 218.117 541.241 C 202.277 541.633 188.656 532.104 188.736 511.816 C 188.917 466.159 188.787 420.5 188.785 374.841 C 188.784 361.677 188.775 348.513 188.791 335.348 C 188.816 316.095 199.076 305.67 218.379 305.646 C 278.367 305.573 338.356 305.605 398.845 305.597 M 321.345 331.025 C 287.853 331.027 254.361 331.023 220.869 331.034 C 214.245 331.036 214.244 331.062 214.244 337.717 C 214.245 389.705 214.246 441.693 214.247 493.681 C 214.247 500.264 214.245 500.282 220.89 500.282 C 301.871 500.286 382.853 500.285 463.834 500.281 C 470.465 500.281 470.489 500.265 470.49 493.619 C 470.497 441.631 470.496 389.643 470.49 337.655 C 470.489 331.043 470.47 331.029 463.812 331.028 C 416.656 331.024 369.501 331.026 321.345 331.025 Z" style="stroke-width: 1;"/><path fill="#a855f7" opacity="1.000000" stroke="none" d="M 341.958 446.607 C 340.226 450.802 338.636 454.642 337.044 458.48 C 334.555 464.478 330.53 466.711 325.459 464.911 C 320.785 463.251 319.227 458.835 321.552 452.794 C 330.622 429.221 339.791 405.686 348.925 382.138 C 349.946 379.505 350.868 376.825 352.033 374.257 C 354.445 368.94 359.19 366.918 364.325 368.87 C 368.947 370.628 371.229 375.552 369.132 380.82 C 363.293 395.486 357.159 410.035 351.123 424.622 C 348.136 431.841 345.107 439.042 341.958 446.607 Z" style="stroke-width: 1;"/><path fill="#a855f7" opacity="1.000000" stroke="none" d="M 303.743 441.941 C 304.766 446.649 304.58 450.689 299.969 452.991 C 295.362 455.292 291.717 453.511 288.339 450.185 C 279.327 441.313 270.214 432.544 261.162 423.713 C 255.941 418.62 255.819 414.151 260.852 409.13 C 270.157 399.847 279.535 390.637 288.849 381.363 C 291.182 379.039 293.793 377.25 297.185 377.64 C 300.735 378.048 303.378 379.994 304.657 383.451 C 305.888 386.779 305.016 389.644 302.549 392.101 C 295.947 398.678 289.334 405.243 282.761 411.849 C 281.493 413.124 279.911 414.177 279.18 416.448 C 286.63 425.32 296.128 432.494 303.743 441.941 Z" style="stroke-width: 1;"/><path fill="#a855f7" opacity="1.000000" stroke="none" d="M 420.936 425.703 C 412.176 434.403 403.726 442.905 395.155 451.284 C 391.348 455.004 386.079 455.046 382.612 451.683 C 379.015 448.196 379.141 443.44 382.961 439.282 C 383.749 438.425 384.601 437.627 385.424 436.803 C 391.191 431.033 396.968 425.275 402.715 419.486 C 403.742 418.451 405.149 417.664 405.402 415.209 C 400.909 410.792 396.058 406.046 391.234 401.271 C 388.16 398.229 384.917 395.321 382.13 392.032 C 379.002 388.34 379.303 383.789 382.372 380.74 C 385.48 377.653 390.892 377.102 394.179 380.24 C 404.65 390.237 415.052 400.32 425.122 410.718 C 429.327 415.06 427.922 419.131 420.936 425.703 Z" style="stroke-width: 1;"/></g></svg>