<?xml version="1.0" encoding="utf-8"?>
<svg xmlns="http://www.w3.org/2000/svg" viewBox="0 0 500 500" xmlns:bx="https://boxy-svg.com" width="500px" height="500px"><defs><bx:export><bx:file format="svg"/></bx:export></defs><g id="Layer_1" style="" transform="matrix(1.265596, 0, 0, 1.146134, -83.333748, -48.159843)"><path fill="#a855f7" opacity="1.000000" stroke="none" d="M 194.455 102.442 C 214.43 98.21 234.247 96.041 254.208 95.701 C 287.444 95.133 320.379 97.207 351.912 109.173 C 360.231 112.33 367.947 116.537 374.604 122.531 C 381.285 128.548 384.579 135.935 384.56 145.037 C 384.458 193.195 384.391 241.354 384.578 289.511 C 384.618 299.706 380.156 306.992 372.356 312.758 C 366.007 317.453 358.864 320.651 351.534 323.45 C 350.008 324.033 348.318 324.823 346.811 323.485 C 340.508 317.887 334.251 312.238 327.818 306.466 C 330.689 304.075 333.59 303.871 336.188 302.912 C 340.244 301.414 344.267 299.827 348.314 298.303 C 357.891 294.697 363.132 288.813 362.095 277.556 C 361.108 266.847 361.883 255.976 361.883 246.068 C 295.232 269.149 228.957 267.909 161.476 246.517 C 162.382 245.783 161.915 245.983 161.914 246.187 C 161.805 258.833 161.54 271.482 161.76 284.123 C 161.842 288.813 164.447 292.437 168.642 295.053 C 175.223 299.156 182.424 301.658 189.674 304.126 C 191.501 304.748 193.624 304.745 195.626 307.11 C 189.904 312.789 184.202 318.494 178.434 324.132 C 177.497 325.048 176.266 324.611 175.124 324.234 C 164.924 320.863 155.174 316.622 147.286 309.07 C 142.413 304.405 139.776 298.829 139.795 291.779 C 139.926 242.621 140.047 193.462 139.718 144.306 C 139.645 133.465 144.096 125.87 152.352 119.766 C 164.818 110.549 179.29 106.208 194.455 102.442 M 161.557 176.525 C 161.557 185.187 162.084 193.888 161.432 202.5 C 160.498 214.843 166.051 222.04 177.133 226.553 C 199.07 235.488 222.173 237.928 245.418 238.992 C 267.018 239.981 288.663 239.474 310.12 236.138 C 324.783 233.858 339.16 230.643 352.401 223.489 C 358.919 219.967 362.128 214.935 361.942 207.401 C 361.687 197.08 361.912 186.749 361.839 176.422 C 361.828 174.877 362.491 173.098 360.764 171.531 C 352.541 175.397 343.911 178.355 335.107 180.786 C 315.284 186.26 295.041 188.442 274.518 189.161 C 254.17 189.873 233.958 188.969 213.813 186.233 C 197.263 183.986 181.237 179.725 165.847 173.179 C 163.214 172.058 161.232 171.845 161.557 176.525 M 224.65 165.225 C 230.593 165.847 236.527 166.87 242.483 167.025 C 269.937 167.737 297.376 167.589 324.285 161.063 C 335.566 158.328 347.043 155.833 356.832 149.002 C 363.104 144.625 363.15 140.591 356.918 136.192 C 350.451 131.627 343.089 128.976 335.548 126.796 C 316.266 121.221 296.495 119.373 276.52 118.444 C 250.638 117.241 225.015 119.012 199.636 123.961 C 187.869 126.255 176.306 129.557 166.178 136.38 C 160.361 140.299 160.418 144.962 166.125 149.05 C 167.336 149.917 168.686 150.608 170.025 151.275 C 186.946 159.705 205.173 163.108 224.65 165.225 Z" style="stroke-width: 1;"/><path fill="#a855f7" opacity="1.000000" stroke="none" d="M 278.157 336.238 C 271.203 359.02 264.392 381.424 257.57 403.825 C 257.183 405.095 256.795 406.382 256.229 407.577 C 254.321 411.611 250.218 413.552 246.383 412.324 C 242.112 410.956 239.496 407.076 240.668 402.639 C 243.76 390.924 247.14 379.283 250.505 367.641 C 256.454 347.063 262.482 326.507 268.467 305.939 C 270.336 299.514 274.343 296.588 279.477 297.948 C 285.088 299.433 287.533 304.432 285.654 311.025 C 283.288 319.328 280.758 327.584 278.157 336.238 Z" style="stroke-width: 1;"/><path fill="#a855f7" opacity="1.000000" stroke="none" d="M 347.871 348.896 C 353.946 355.01 354.059 358.609 348.324 364.32 C 338.188 374.414 327.977 384.434 317.763 394.449 C 315.093 397.067 312.146 399.302 308.061 398.319 C 300.804 396.572 298.607 388.346 304.044 382.695 C 311.078 375.384 318.18 368.124 325.574 361.183 C 329.244 357.737 328.789 355.689 325.118 352.631 C 317.968 346.674 311.184 340.275 304.319 333.982 C 299.363 329.44 298.44 323.774 301.877 319.997 C 305.491 316.027 311.7 316.043 316.616 320.439 C 327.028 329.751 337.283 339.239 347.871 348.896 Z" style="stroke-width: 1;"/><path fill="#a855f7" opacity="1.000000" stroke="none" d="M 200.221 359.519 C 207.635 367.426 214.892 375.007 221.955 382.765 C 226.471 387.727 226.638 392.768 222.812 396.502 C 219.147 400.078 213.609 399.646 209.107 395.085 C 198.809 384.655 188.594 374.142 178.438 363.574 C 173.726 358.671 173.711 354.942 178.425 350.179 C 188.969 339.525 199.59 328.947 210.266 318.427 C 214.501 314.254 219.908 314.089 223.608 317.721 C 227.57 321.61 227.347 326.226 222.883 330.883 C 215.507 338.578 208.108 346.252 200.678 353.895 C 199.045 355.575 197.584 357.133 200.221 359.519 Z" style="stroke-width: 1;"/><path fill="#a855f7" opacity="1.000000" stroke="none" d="M 228.153 207.553 C 234.348 203.043 240.847 203.943 247.031 205.905 C 251.237 207.239 252.078 211.383 251.443 215.476 C 250.811 219.55 248.185 222.114 244.188 222.612 C 240.752 223.04 237.199 222.988 233.74 222.672 C 227.785 222.129 222.777 214.344 228.153 207.553 Z" style="stroke-width: 1;"/><path fill="#a855f7" opacity="1.000000" stroke="none" d="M 273.023 213.558 C 274.028 207.553 277.512 204.807 283.068 204.702 C 285.88 204.648 288.724 204.764 291.509 205.139 C 296.068 205.754 299.261 209.1 299.285 213.456 C 299.309 217.693 297.216 220.977 293.094 222.14 C 288.588 223.411 283.835 223.425 279.317 222.154 C 275.408 221.054 273.545 217.9 273.023 213.558 Z" style="stroke-width: 1;"/></g></svg>