<svg version="1.1" id="Layer_1" xmlns="http://www.w3.org/2000/svg" xmlns:xlink="http://www.w3.org/1999/xlink" x="0px" y="0px"
	 width="100%" viewBox="0 0 512 512" enable-background="new 0 0 512 512" xml:space="preserve">
<path fill="#000000" opacity="1.000000" stroke="none" 
	d="
M203.250717,64.944122 
	C223.225906,60.712955 243.042633,58.543991 263.004028,58.203064 
	C296.239441,57.635418 329.175232,59.709557 360.708191,71.675400 
	C369.027069,74.832161 376.742432,79.039276 383.399475,85.034004 
	C390.080719,91.050507 393.374969,98.437492 393.355652,107.539665 
	C393.253326,155.697525 393.186981,203.856125 393.374237,252.013428 
	C393.413849,262.208832 388.951630,269.494751 381.152130,275.260956 
	C374.802460,279.955322 367.659760,283.154022 360.329956,285.952820 
	C358.803619,286.535645 357.113861,287.325470 355.606903,285.987091 
	C349.304108,280.389526 343.046539,274.741058 336.613861,268.968994 
	C339.484711,266.577606 342.385864,266.373932 344.984039,265.414551 
	C349.040131,263.916870 353.062958,262.329315 357.109619,260.805664 
	C366.686981,257.199707 371.928009,251.315964 370.890839,240.058197 
	C369.904236,229.349564 370.678406,218.478699 370.678406,208.570099 
	C304.027435,231.651077 237.752411,230.411301 170.271393,209.019440 
	C171.177261,208.285339 170.711151,208.485596 170.709396,208.689835 
	C170.600571,221.335327 170.336044,233.984512 170.556015,246.625168 
	C170.637650,251.315521 173.242538,254.940018 177.438232,257.555725 
	C184.019012,261.658325 191.219360,264.160187 198.470001,266.628662 
	C200.296661,267.250580 202.419510,267.247620 204.421280,269.612518 
	C198.700104,275.291992 192.997955,280.996674 187.230042,286.634125 
	C186.292343,287.550598 185.061859,287.113922 183.919662,286.736450 
	C173.720032,283.365540 163.969940,279.124664 156.081696,271.572632 
	C151.208710,266.907379 148.572159,261.331268 148.590912,254.281479 
	C148.721710,205.123932 148.842529,155.964615 148.513763,106.808914 
	C148.441238,95.967995 152.891266,88.372528 161.147797,82.268150 
	C173.613464,73.051765 188.085342,68.710533 203.250717,64.944122 
M170.352524,139.027802 
	C170.352966,147.689102 170.880112,156.390259 170.228134,165.002167 
	C169.293625,177.345871 174.847000,184.542450 185.928635,189.055893 
	C207.865646,197.990616 230.968292,200.430069 254.213760,201.494370 
	C275.813690,202.483292 297.458954,201.976807 318.915771,198.640732 
	C333.579193,196.360886 347.956116,193.145462 361.196381,185.991821 
	C367.715057,182.469818 370.923859,177.437469 370.737915,169.903625 
	C370.483185,159.582947 370.708252,149.251068 370.635132,138.924622 
	C370.624207,137.379288 371.286621,135.600159 369.559448,134.033096 
	C361.336456,137.899414 352.706696,140.857819 343.902466,143.289032 
	C324.080109,148.762833 303.836639,150.945023 283.314209,151.663422 
	C262.965576,152.375732 242.753342,151.471100 222.608841,148.735748 
	C206.058426,146.488449 190.032272,142.227997 174.643173,135.681198 
	C172.009338,134.560730 170.028198,134.347961 170.352524,139.027802 
M233.445282,127.727119 
	C239.389069,128.350006 245.322464,129.372864 251.278397,129.527359 
	C278.733093,130.239395 306.172119,130.091110 333.080414,123.565880 
	C344.361389,120.830246 355.838959,118.335815 365.627380,111.504906 
	C371.899841,107.127647 371.945801,103.093872 365.714142,98.694733 
	C359.246918,94.129288 351.884949,91.478378 344.343872,89.298302 
	C325.061859,83.724022 305.290649,81.875412 285.315674,80.946587 
	C259.433472,79.743080 233.811005,81.514938 208.431458,86.463409 
	C196.665237,88.757568 185.101700,92.059547 174.973434,98.882828 
	C169.156311,102.801758 169.213959,107.464745 174.921234,111.552483 
	C176.131744,112.419479 177.481995,113.110329 178.820297,113.777092 
	C195.741684,122.207565 213.968613,125.610565 233.445282,127.727119 
z"/>
<path fill="#000000" opacity="1.000000" stroke="none" 
	d="
M286.953094,298.740479 
	C279.998413,321.522156 273.188232,343.926788 266.365265,366.327515 
	C265.978394,367.597656 265.590546,368.884979 265.025085,370.080017 
	C263.116425,374.113708 259.013794,376.054504 255.178604,374.826477 
	C250.907516,373.458832 248.291901,369.578827 249.463318,365.141602 
	C252.556046,353.426453 255.935287,341.785522 259.300690,330.144043 
	C265.249664,309.565399 271.278107,289.009705 277.262268,268.441162 
	C279.131348,262.016754 283.138611,259.090759 288.272949,260.450134 
	C293.883667,261.935577 296.328766,266.934448 294.449615,273.527802 
	C292.083344,281.830383 289.553864,290.086426 286.953094,298.740479 
z"/>
<path fill="#000000" opacity="1.000000" stroke="none" 
	d="
M356.666443,311.398102 
	C362.742004,317.512909 362.855011,321.111450 357.119995,326.822784 
	C346.983917,336.917053 336.772766,346.936188 326.558960,356.951996 
	C323.889160,359.570038 320.942139,361.804657 316.856262,360.821320 
	C309.599945,359.074951 307.402863,350.848785 312.839966,345.197479 
	C319.873535,337.886810 326.976166,330.626068 334.369446,323.685120 
	C338.039276,320.239838 337.584625,318.191925 333.913849,315.133728 
	C326.764008,309.177002 319.979858,302.777344 313.114319,296.484711 
	C308.158447,291.942352 307.235443,286.276428 310.673157,282.499207 
	C314.286285,278.529175 320.495819,278.545380 325.411438,282.941559 
	C335.823517,292.253387 346.078369,301.741089 356.666443,311.398102 
z"/>
<path fill="#000000" opacity="1.000000" stroke="none" 
	d="
M209.016556,322.021973 
	C216.430405,329.928711 223.687943,337.509369 230.750336,345.267670 
	C235.266846,350.229248 235.433472,355.270538 231.607300,359.004547 
	C227.942780,362.580841 222.404541,362.148071 217.902420,357.587860 
	C207.604874,347.157379 197.389816,336.644287 187.233459,326.076141 
	C182.521698,321.173309 182.506638,317.444611 187.220947,312.681061 
	C197.764435,302.027527 208.385696,291.449890 219.062210,280.929596 
	C223.297058,276.756683 228.703842,276.591217 232.404068,280.223206 
	C236.366119,284.112183 236.142883,288.728302 231.678802,293.385254 
	C224.302460,301.080292 216.904236,308.754608 209.474045,316.397644 
	C207.840912,318.077545 206.379700,319.635406 209.016556,322.021973 
z"/>
<path fill="#000000" opacity="1.000000" stroke="none" 
	d="
M236.948776,170.055252 
	C243.143936,165.545731 249.642685,166.445801 255.826538,168.407547 
	C260.033081,169.742004 260.873840,173.885910 260.238922,177.978210 
	C259.606720,182.052414 256.980774,184.616623 252.983627,185.114349 
	C249.547638,185.542175 245.994293,185.490173 242.536209,185.174805 
	C236.581055,184.631683 231.572876,176.846298 236.948776,170.055252 
z"/>
<path fill="#000000" opacity="1.000000" stroke="none" 
	d="
M281.818970,176.060455 
	C282.823395,170.055679 286.307678,167.309235 291.863312,167.204132 
	C294.675415,167.150925 297.519867,167.266251 300.304291,167.641830 
	C304.863953,168.256836 308.057190,171.603027 308.081085,175.958572 
	C308.104309,180.195099 306.012054,183.479446 301.889923,184.642212 
	C297.383698,185.913345 292.630676,185.927933 288.112335,184.656769 
	C284.203369,183.557022 282.341064,180.402725 281.818970,176.060455 
z"/>
</svg>