<svg xmlns="http://www.w3.org/2000/svg" xmlns:xlink="http://www.w3.org/1999/xlink" version="1.1" id="Layer_1" x="0px" y="0px" width="100%" viewBox="0 0 512 512" enable-background="new 0 0 512 512" xml:space="preserve">
<path fill="#a855f7" opacity="1.000000" stroke="none" d=" M295.226746,69.600906   C342.968140,89.974640 373.374634,124.983505 384.666687,175.260956   C403.359863,258.491272 351.098450,340.765747 267.409149,357.388916   C184.010834,373.954254 104.367798,321.344818 87.912514,238.345596   C71.669273,156.415894 122.329933,80.306404 199.987518,62.271805   C232.347488,54.756775 263.983856,57.227322 295.226746,69.600906  M107.355804,194.771820   C106.287308,206.232544 106.392090,217.668198 108.367233,229.029083   C109.839386,237.496826 111.616325,245.897461 115.333466,254.332993   C118.970055,251.141479 122.268433,248.410873 126.293816,246.717560   C138.920181,241.406143 152.003311,241.082947 164.952454,244.364944   C180.362350,248.270615 184.269516,254.844742 182.453217,270.917664   C182.217178,273.006409 182.642776,274.816711 183.915375,276.537292   C189.676926,284.327057 196.875122,290.335846 205.649582,294.475098   C208.272736,295.712585 210.404312,295.570801 213.044830,293.927979   C228.887909,284.070984 244.731110,283.999817 260.201111,294.835419   C262.712097,296.594177 264.876740,296.850708 267.564209,295.503479   C276.403900,291.072113 283.635590,284.888641 288.947052,276.497711   C290.257965,274.426727 290.629700,272.440369 290.140198,269.909058   C287.753723,257.568237 292.048645,250.399841 303.733490,245.613434   C312.054047,242.205124 320.673279,242.443924 329.311188,242.692261   C338.723297,242.962830 347.253845,245.899765 354.565674,252.016174   C355.533630,252.825882 356.172760,254.250641 357.901428,253.925858   C359.676392,252.481873 359.978516,250.243942 360.584869,248.226227   C366.604004,228.197006 368.322083,207.924118 364.775085,187.167679   C359.233002,154.736832 344.022980,127.966461 318.062500,107.812393   C289.358643,85.528542 256.540558,77.353279 220.514435,81.218132   C193.151611,84.153572 169.180740,94.643417 148.776627,113.050842   C124.771301,134.707077 111.448082,161.935394 107.355804,194.771820  M294.194946,293.682526   C288.250854,300.017883 281.223816,304.948639 273.346161,309.210022   C276.685333,316.249634 278.804901,323.329132 279.909180,331.298737   C309.782257,321.293854 331.325714,302.072723 347.576202,276.493774   C346.271545,274.670776 345.138428,274.433594 343.953766,274.431885   C332.647430,274.415741 321.341003,274.435913 310.034760,274.402161   C307.850586,274.395630 306.968353,275.642151 306.025665,277.432983   C302.993805,283.192505 299.106750,288.382721 294.194946,293.682526  M154.443146,274.232056   C145.218506,274.232056 135.993851,274.232056 126.521362,274.232056   C131.699875,293.431458 174.861557,329.383209 192.303299,329.573944   C193.243149,322.020538 195.664566,314.836334 199.151489,307.742218   C186.528503,301.650665 176.257324,293.153503 169.369980,281.454559   C165.880554,275.527374 161.858170,273.198730 154.443146,274.232056  M220.812927,337.636261   C234.616898,339.491180 248.282455,338.659180 261.890411,335.789734   C264.469147,335.245911 265.771057,334.604156 265.307678,331.655609   C264.004181,323.361267 260.816803,315.998016 254.791107,310.087769   C248.980438,304.388397 242.124802,300.872650 233.728027,302.093842   C220.419189,304.029480 210.447556,313.606232 207.591797,326.824890   C205.925812,334.536346 206.626251,335.517242 214.523788,336.661194   C216.327347,336.922424 218.117096,337.279053 220.812927,337.636261  z"/>
<path fill="#a855f7" opacity="1.000000" stroke="none" d=" M242.999481,234.361343   C223.845123,234.366653 205.189529,234.259155 186.537292,234.461319   C182.038406,234.510071 180.242737,233.201370 180.518478,228.525757   C180.870911,222.549606 180.797409,216.533249 180.606720,210.543808   C180.349869,202.477570 183.786514,196.406631 190.179092,191.867432   C199.764496,185.061066 210.813461,181.916458 222.144333,179.827805   C240.025772,176.531647 257.185089,179.491516 273.804199,186.510345   C286.366455,191.815826 293.022064,200.806061 292.282135,214.800339   C292.036255,219.450943 292.004669,224.141159 292.310638,228.784576   C292.607391,233.288010 290.711395,234.489487 286.470032,234.432205   C272.148804,234.238785 257.823334,234.360809 242.999481,234.361343  z"/>
<path fill="#a855f7" opacity="1.000000" stroke="none" d=" M225.756653,114.376740   C244.595139,108.649887 260.590271,117.656273 264.617859,135.887360   C267.572174,149.260300 259.880219,162.863724 246.368515,168.161758   C233.816696,173.083435 218.683167,167.989166 211.977356,156.584991   C202.451385,140.384750 208.186783,122.399727 225.756653,114.376740  z"/>
<path fill="#a855f7" opacity="1.000000" stroke="none" d=" M234.245636,280.379089   C225.318787,278.882019 219.055099,272.813049 217.762939,264.823486   C216.259109,255.524994 219.905243,246.925674 227.069763,242.873581   C233.944733,238.985245 243.109955,239.931671 248.911545,245.129028   C254.921539,250.513092 257.118347,260.088348 254.161377,268.011353   C251.057083,276.329041 244.645325,280.406342 234.245636,280.379089  z"/>
<path fill="#a855f7" opacity="1.000000" stroke="none" d=" M322.445740,197.062317   C333.738678,197.004211 341.066467,204.045959 341.854645,215.234497   C342.523834,224.734055 335.595459,233.542389 326.319824,234.803223   C321.821960,235.414627 317.752228,234.149170 314.230103,231.269760   C307.648834,225.889465 306.327179,218.606720 307.868408,210.910278   C309.373138,203.396179 314.457306,198.796951 322.445740,197.062317  z"/>
<path fill="#a855f7" opacity="1.000000" stroke="none" d=" M154.495087,233.967468   C141.545853,237.452148 133.853149,228.766678 131.920120,219.138077   C129.956268,209.355865 136.581848,199.444077 146.359268,197.307953   C155.441650,195.323685 165.258621,203.100586 166.290009,213.096863   C167.260406,222.501816 163.400070,229.502258 154.495087,233.967468  z"/>
</svg>