<?xml version="1.0" encoding="utf-8"?>
<svg xmlns="http://www.w3.org/2000/svg" viewBox="0 0 500 500" xmlns:bx="https://boxy-svg.com" width="500px" height="500px"><defs><bx:export><bx:file format="svg"/></bx:export></defs><g id="Layer_1" transform="matrix(1.282756, 0, 0, 1.358548, -229.105667, -76.575104)" style=""><path fill="#a855f7" opacity="1.000000" stroke="none" d="M 434.964 98.892 C 482.705 119.266 513.112 154.275 524.404 204.552 C 543.097 287.783 490.835 370.057 407.146 386.68 C 323.748 403.246 244.105 350.636 227.649 267.637 C 211.406 185.707 262.067 109.598 339.724 91.563 C 372.084 84.048 403.721 86.519 434.964 98.892 M 247.093 224.063 C 246.024 235.524 246.129 246.96 248.104 258.32 C 249.576 266.788 251.353 275.189 255.07 283.624 C 258.707 280.433 262.005 277.702 266.031 276.009 C 278.657 270.698 291.74 270.374 304.689 273.656 C 320.099 277.562 324.006 284.136 322.19 300.209 C 321.954 302.298 322.38 304.108 323.652 305.829 C 329.414 313.618 336.612 319.627 345.386 323.766 C 348.01 325.004 350.141 324.862 352.782 323.219 C 368.625 313.362 384.468 313.291 399.938 324.127 C 402.449 325.886 404.614 326.142 407.301 324.795 C 416.141 320.363 423.372 314.18 428.684 305.789 C 429.995 303.718 430.367 301.732 429.877 299.2 C 427.491 286.86 431.786 279.691 443.47 274.905 C 451.791 271.496 460.41 271.735 469.048 271.984 C 478.46 272.254 486.991 275.191 494.303 281.308 C 495.271 282.117 495.91 283.542 497.638 283.217 C 499.413 281.773 499.715 279.535 500.322 277.518 C 506.341 257.488 508.059 237.215 504.512 216.459 C 498.97 184.028 483.76 157.258 457.799 137.104 C 429.096 114.82 396.277 106.645 360.251 110.509 C 332.889 113.445 308.918 123.935 288.514 142.342 C 264.508 163.998 251.185 191.227 247.093 224.063 M 433.932 322.974 C 427.988 329.309 420.961 334.24 413.083 338.501 C 416.422 345.541 418.542 352.62 419.646 360.59 C 449.519 350.585 471.063 331.364 487.313 305.785 C 486.008 303.962 484.875 303.725 483.691 303.723 C 472.384 303.707 461.078 303.727 449.772 303.694 C 447.587 303.687 446.705 304.934 445.763 306.724 C 442.731 312.484 438.844 317.674 433.932 322.974 M 294.18 303.523 C 284.955 303.523 275.731 303.523 266.258 303.523 C 271.437 322.723 314.598 358.675 332.04 358.865 C 332.98 351.312 335.401 344.128 338.888 337.034 C 326.265 330.942 315.994 322.445 309.107 310.746 C 305.617 304.819 301.595 302.49 294.18 303.523 M 360.55 366.928 C 374.354 368.783 388.019 367.951 401.627 365.081 C 404.206 364.537 405.508 363.896 405.045 360.947 C 403.741 352.653 400.554 345.289 394.528 339.379 C 388.717 333.68 381.862 330.164 373.465 331.385 C 360.156 333.321 350.184 342.898 347.329 356.116 C 345.663 363.828 346.363 364.809 354.261 365.953 C 356.064 366.214 357.854 366.57 360.55 366.928 Z" style="stroke-width: 1;"/><path fill="#a855f7" opacity="1.000000" stroke="none" d="M 382.736 263.653 C 363.582 263.658 344.926 263.551 326.274 263.753 C 321.775 263.801 319.98 262.493 320.255 257.817 C 320.608 251.841 320.534 245.825 320.344 239.835 C 320.087 231.769 323.523 225.698 329.916 221.159 C 339.501 214.352 350.55 211.208 361.881 209.119 C 379.763 205.823 396.922 208.783 413.541 215.802 C 426.103 221.107 432.759 230.097 432.019 244.092 C 431.773 248.742 431.742 253.433 432.048 258.076 C 432.344 262.579 430.448 263.781 426.207 263.724 C 411.886 263.53 397.56 263.652 382.736 263.653 Z" style="stroke-width: 1;"/><path fill="#a855f7" opacity="1.000000" stroke="none" d="M 365.494 143.668 C 384.332 137.941 400.327 146.948 404.355 165.179 C 407.309 178.552 399.617 192.155 386.105 197.453 C 373.554 202.375 358.42 197.281 351.714 185.876 C 342.188 169.676 347.924 151.691 365.494 143.668 Z" style="stroke-width: 1;"/><path fill="#a855f7" opacity="1.000000" stroke="none" d="M 373.983 309.67 C 365.056 308.173 358.792 302.104 357.5 294.115 C 355.996 284.816 359.642 276.217 366.807 272.165 C 373.682 268.277 382.847 269.223 388.648 274.42 C 394.658 279.804 396.855 289.38 393.898 297.303 C 390.794 305.62 384.382 309.698 373.983 309.67 Z" style="stroke-width: 1;"/><path fill="#a855f7" opacity="1.000000" stroke="none" d="M 462.183 226.354 C 473.476 226.296 480.803 233.337 481.592 244.526 C 482.261 254.025 475.332 262.834 466.057 264.095 C 461.559 264.706 457.489 263.441 453.967 260.561 C 447.386 255.181 446.064 247.898 447.605 240.202 C 449.11 232.688 454.194 228.088 462.183 226.354 Z" style="stroke-width: 1;"/><path fill="#a855f7" opacity="1.000000" stroke="none" d="M 294.232 263.259 C 281.283 266.744 273.59 258.058 271.657 248.429 C 269.693 238.647 276.319 228.735 286.096 226.599 C 295.179 224.615 304.996 232.392 306.027 242.388 C 306.997 251.793 303.137 258.794 294.232 263.259 Z" style="stroke-width: 1;"/></g></svg>